<?xml version="1.0" encoding="UTF-8" standalone="no"?>
<!-- Created with Inkscape (http://www.inkscape.org/) -->

<svg
   version="1.1"
   id="svg1"
   width="810.66669"
   height="812"
   viewBox="0 0 810.66669 812"
   sodipodi:docname="SMC_button_RGB2.eps"
   xmlns:inkscape="http://www.inkscape.org/namespaces/inkscape"
   xmlns:sodipodi="http://sodipodi.sourceforge.net/DTD/sodipodi-0.dtd"
   xmlns="http://www.w3.org/2000/svg"
   xmlns:svg="http://www.w3.org/2000/svg">
  <defs
     id="defs1">
    <radialGradient
       fx="192.802"
       fy="548.04102"
       cx="192.802"
       cy="548.04102"
       r="0"
       gradientUnits="userSpaceOnUse"
       gradientTransform="matrix(10,0,0,10,20,-1160)"
       spreadMethod="pad"
       id="radialGradient3">
      <stop
         style="stop-opacity:1;stop-color:#006699"
         offset="0"
         id="stop1" />
      <stop
         style="stop-opacity:1;stop-color:#00b5e3"
         offset="0.5625"
         id="stop2" />
      <stop
         style="stop-opacity:1;stop-color:#7ae3ff"
         offset="1"
         id="stop3" />
    </radialGradient>
    <clipPath
       clipPathUnits="userSpaceOnUse"
       id="clipPath3">
      <path
         d="M 5016.79,9.31641 H 1065.17 C 482.074,9.31641 4.98438,486.406 4.98438,1069.5 v 3951.6 c 0,583.13 477.08962,1060.19 1060.18562,1060.19 h 3951.62 c 583.1,0 1060.19,-477.06 1060.19,-1060.19 V 1069.5 C 6076.98,486.406 5599.89,9.31641 5016.79,9.31641 Z"
         clip-rule="evenodd"
         id="path3" />
    </clipPath>
  </defs>
  <sodipodi:namedview
     id="namedview1"
     pagecolor="#ffffff"
     bordercolor="#000000"
     borderopacity="0.25"
     inkscape:showpageshadow="2"
     inkscape:pageopacity="0.0"
     inkscape:pagecheckerboard="0"
     inkscape:deskcolor="#d1d1d1">
    <inkscape:page
       x="0"
       y="0"
       inkscape:label="1"
       id="page1"
       width="810.66669"
       height="812"
       margin="0"
       bleed="0" />
  </sodipodi:namedview>
  <g
     id="g1"
     inkscape:groupmode="layer"
     inkscape:label="1">
    <path
       id="path1"
       d="M 5016.79,9.31641 H 1065.17 C 482.074,9.31641 4.98438,486.406 4.98438,1069.5 v 3951.6 c 0,583.13 477.08962,1060.19 1060.18562,1060.19 h 3951.62 c 583.1,0 1060.19,-477.06 1060.19,-1060.19 V 1069.5 C 6076.98,486.406 5599.89,9.31641 5016.79,9.31641"
       style="fill:url(#radialGradient3);fill-opacity:1;fill-rule:nonzero;stroke:none"
       transform="matrix(0.13333333,0,0,-0.13333333,0,812)"
       clip-path="url(#clipPath3)" />
    <path
       id="path4"
       d="m 2800.93,3873.97 h 486.12 c 49.97,0 93.47,-41.51 93.47,-93.5 l 0.01,-454.88 c -0.01,-68.66 56.01,-124.66 124.63,-124.65 l 454.91,-0.01 c 53.51,0 91.5,-41.62 93.47,-93.47 v -486.1 c 0,-51.28 -41.9,-93.46 -93.47,-93.46 l -454.96,-0.02 c -68.5,0.01 -124.42,-55.8 -124.6,-124.29 l 0.01,-455.23 c 0,-53.15 -38.05,-87.04 -88.69,-93.34 -5.45,-0.68 -469.86,-1.63 -505.1,0.96 -44.23,3.25 -79.27,49.72 -79.27,92.38 l 0.01,455.23 c -0.18,68.49 -56.09,124.3 -124.59,124.29 l -454.96,0.02 c -51.58,0 -93.47,42.18 -93.47,93.46 v 486.1 c 1.99,52.06 40.17,93.47 93.46,93.47 l 454.91,0.01 c 68.63,-0.01 124.64,55.99 124.63,124.65 l 0.02,454.88 c 0,51.99 43.49,93.5 93.46,93.5 z m -487.53,627.25 c 662.23,234.86 1022.69,-36.14 1374.62,-0.28 351.94,35.86 -14.53,986.17 284.57,687.01 1256.91,-1257.22 1272.87,-3358.29 -285.25,-4003.72 -915.96,-379.39 -1969.7,54.09 -2345.46,971.56 -398.079,971.95 157,2056.61 971.52,2345.43 z m 1302.37,228.1 c 7.15,45.23 6.89,112.38 6.33,140.63 -3.78,190.53 -64.45,477.51 148.26,581.62 139.23,68.14 268.18,-1.91 366.08,-99.82 460.87,-461 791.32,-1055.14 922.35,-1694.94 120.26,-587.39 69.73,-1216.49 -221.46,-1748.2 C 4599.98,1475.22 4231.15,1158.77 3775.98,970.223 3268.12,759.84 2699.75,763.957 2195.04,981.633 1709.37,1191.05 1328.02,1578.34 1127.49,2067.97 c -212.537,518.97 -193.455,1100.34 33.79,1610.9 207.26,465.79 588.21,868.21 1074.7,1040.71 308.61,109.42 594.65,135.37 916.86,85.01 130.86,-20.47 321.71,-74.25 462.93,-75.27"
       style="fill:#ffffff;fill-opacity:1;fill-rule:evenodd;stroke:none"
       transform="matrix(0.13333333,0,0,-0.13333333,0,812)" />
  </g>
</svg>
